<?xml version="1.0" encoding="utf-8"?>
<!-- Generator: Adobe Illustrator 16.0.0, SVG Export Plug-In . SVG Version: 6.00 Build 0)  -->
<!DOCTYPE svg PUBLIC "-//W3C//DTD SVG 1.1//EN" "http://www.w3.org/Graphics/SVG/1.1/DTD/svg11.dtd">
<svg version="1.1" id="Layer_1" xmlns="http://www.w3.org/2000/svg" xmlns:xlink="http://www.w3.org/1999/xlink" x="0px" y="0px"
	 width="322.157px" height="28.831px" viewBox="0 0 322.157 28.831" enable-background="new 0 0 322.157 28.831"
	 xml:space="preserve">
<g>
	<polygon fill-rule="evenodd" clip-rule="evenodd" fill="#419F76" points="13.02,22.194 9.469,28.831 0,6.653 6.284,6.653 
		13.02,22.194 	"/>
	<polygon fill-rule="evenodd" clip-rule="evenodd" fill="#E2343C" points="6.288,6.638 9.839,0 19.308,22.18 13.024,22.18 
		6.288,6.638 	"/>
	<polygon fill-rule="evenodd" clip-rule="evenodd" fill="#419F76" points="25.711,22.194 22.16,28.831 12.691,6.653 18.976,6.653 
		25.711,22.194 	"/>
	<polygon fill-rule="evenodd" clip-rule="evenodd" fill="#E2343C" points="18.979,6.638 22.531,0 32,22.18 25.715,22.18 
		18.979,6.638 	"/>
</g>
<g>
	<path fill-rule="evenodd" clip-rule="evenodd" fill="#0D5E9E" d="M99.231,7.333c1.507,0,2.811,0,4.294,0
		c-0.283,4.749-0.56,9.405-0.841,14.13c-1.893,0.168-3.684,0.089-5.528,0.059c-1.74-2.84-3.465-5.654-5.189-8.468
		c-0.132,0.006-0.265,0.012-0.396,0.018c0,2.76,0,5.522,0,8.288c-1.698,0.342-3.053,0.148-4.518,0.177
		c0.232-4.816,0.633-9.467,0.679-14.208c1.984,0,3.778,0,5.74,0c1.649,2.812,3.34,5.695,5.234,8.924
		C99.166,13.072,99.085,10.274,99.231,7.333z"/>
	<path fill-rule="evenodd" clip-rule="evenodd" fill="#0D5E9F" d="M242.602,7.341c1.6,0,3.072,0,4.643,0
		c0.187,1.072,0.023,2.081-0.068,3.08c-0.176,1.921-0.32,3.844-0.245,5.771c0.056,1.438,0.708,2.138,2.022,2.339
		c1.393,0.214,2.46-0.299,2.983-1.479c0.321-0.724,0.39-1.505,0.439-2.291c0.154-2.45,0.336-4.897,0.511-7.408
		c1.647-0.214,3.178-0.096,4.892-0.072c-0.261,3.619-0.456,7.083-0.787,10.536c-0.144,1.493-1.151,2.52-2.514,3.069
		c-3.322,1.34-6.688,1.387-10.023,0.047c-1.604-0.645-2.527-1.872-2.443-3.641C242.165,14.001,242.398,10.714,242.602,7.341z"/>
	<path fill-rule="evenodd" clip-rule="evenodd" fill="#0D5E9E" d="M268.918,10.908c-1.149-1.04-2.577-0.577-4.064-0.647
		c-0.62,3.701-0.329,7.427-0.6,11.197c-1.57,0.149-3.037,0.158-4.656-0.017c0.521-4.703,0.514-9.325,0.752-14.186
		c3.445,0.145,6.851-0.46,10.246,0.182c1.877,0.354,2.955,1.473,3.171,3.026c0.248,1.785-0.506,3.231-2.16,4.216
		c-0.354,0.21-0.829,0.227-1.137,0.793c0.587,1.957,1.771,3.786,2.67,5.968c-1.722,0.244-3.303,0.048-4.944,0.128
		c-0.95-2.614-1.868-5.14-2.857-7.864c1.277-0.31,2.81,0.164,3.604-1.19C269.237,12.015,269.211,11.481,268.918,10.908z"/>
	<path fill-rule="evenodd" clip-rule="evenodd" fill="#0D5E9E" d="M149.124,15.572c0.859,1.857,1.738,3.758,2.691,5.817
		c-1.716,0.295-3.291,0.155-4.922,0.109c-0.943-2.571-1.869-5.094-2.847-7.76c1.282-0.371,2.823,0.145,3.613-1.24
		c0.289-0.506,0.291-1.032-0.067-1.624c-1.13-0.996-2.55-0.555-4.044-0.598c-0.507,3.7-0.418,7.409-0.56,11.196
		c-1.572,0.141-2.992,0.097-4.626,0.016c0.321-4.704,0.625-9.351,0.649-14.249c3.393,0.152,6.673-0.377,9.954,0.125
		c2.045,0.314,3.195,1.354,3.472,2.925c0.333,1.903-0.464,3.456-2.289,4.479C149.84,14.94,149.436,14.958,149.124,15.572z"/>
	<path fill-rule="evenodd" clip-rule="evenodd" fill="#0D5E9E" d="M58.223,13.607c1.768-0.082,3.5,0.166,3.955-2.063
		c-1.051-1.976-2.839-1.128-4.502-1.243c-0.315,3.757-0.411,7.403-0.462,11.15c-1.6,0-3.067,0-4.685,0
		c0.446-4.706,0.632-9.36,0.668-14.174c3.35,0.069,6.519-0.36,9.692,0.035c2.201,0.274,3.522,1.387,3.77,3.05
		c0.303,2.029-0.479,3.435-2.524,4.515c-0.259,0.136-0.589,0.159-0.777,0.698c0.822,1.799,1.711,3.745,2.658,5.817
		c-1.692,0.314-3.23,0.106-4.904,0.149C60.174,18.965,59.237,16.392,58.223,13.607z"/>
	<path fill-rule="evenodd" clip-rule="evenodd" fill="#0D5E9E" d="M293.396,7.33c4.24,0,8.195,0,12.254,0
		c0.141,1.02,0.064,1.945-0.1,2.979c-2.442,0.146-4.838-0.145-7.267,0.104c-0.309,0.755-0.188,1.452-0.221,2.226
		c2.06,0.306,4.039,0.017,6.106,0.154c0.255,1.049-0.004,2.016-0.011,3.176c-2.173,0-4.197,0-6.155,0
		c-0.437,0.861-0.281,1.577-0.257,2.449c2.434,0,4.863,0,7.354,0c0.214,1.113,0.077,2.042-0.187,3.056c-4.017,0-8.029,0-12.24,0
		C293.052,16.764,293.369,12.115,293.396,7.33z"/>
	<path fill-rule="evenodd" clip-rule="evenodd" fill="#0D5E9E" d="M287.702,7.281c1.604-0.027,3.146-0.115,4.851,0.085
		c-2.549,4.769-5.037,9.423-7.549,14.122c-1.761,0-3.494,0-5.429,0c-1.702-4.598-3.425-9.255-5.197-14.044
		c1.648-0.377,3.175-0.137,4.828-0.161c1.111,3.381,2.215,6.737,3.427,10.42C284.381,14.109,285.997,10.786,287.702,7.281z"/>
	<path fill-rule="evenodd" clip-rule="evenodd" fill="#0E5E9E" d="M221.577,7.532c0.141,0.962,0.189,1.955,0.061,3.063
		c-1.301,0.014-2.454-0.428-3.656-0.354c-2.003,0.123-3.654,0.823-4.594,2.692c-1.283,2.546,0.208,5.286,3.066,5.641
		c1.622,0.203,3.229-0.062,5.075-0.42c-0.211,1.19-0.394,2.216-0.584,3.289c-2.536,0.499-4.98,0.632-7.421,0.023
		c-2.995-0.747-4.991-2.797-5.305-5.487c-0.376-3.216,0.618-5.834,3.5-7.553C214.392,6.832,218.135,6.486,221.577,7.532z"/>
	<path fill-rule="evenodd" clip-rule="evenodd" fill="#0E5E9E" d="M183.797,12.897c0.099,1.09,0.07,1.974-0.11,3.018
		c-1.917,0-3.757,0-5.639,0c-0.419,1.913-0.092,3.727-0.359,5.56c-1.641,0-3.176,0-4.857,0c0.336-4.74,0.622-9.391,0.636-14.132
		c3.991,0,7.809,0,11.668,0c0,0.986,0,1.871,0,2.854c-2.303,0.455-4.601-0.143-6.8,0.327c-0.292,0.705-0.2,1.363-0.158,2.141
		C179.981,13.039,181.847,12.657,183.797,12.897z"/>
	<path fill-rule="evenodd" clip-rule="evenodd" fill="#0D5F9F" d="M191.923,15.953c-0.104,1.9-0.199,3.628-0.3,5.48
		c-1.548,0-3.079,0-4.854,0c0.533-4.66,0.43-9.328,0.732-14.084c3.896,0,7.712,0,11.637,0c0.05,1.035,0.096,1.966-0.228,3.01
		c-2.173,0-4.326,0-6.462,0c-0.452,0.767-0.348,1.483-0.35,2.274c1.824,0.444,3.699-0.019,5.582,0.285
		c0.142,1.002,0.134,1.93-0.089,3.034C195.71,15.953,193.871,15.953,191.923,15.953z"/>
	<path fill-rule="evenodd" clip-rule="evenodd" fill="#0E5E9E" d="M115.625,7.385c0.106,1.195,0.363,2.186,0.109,3.242
		c-1.73-0.1-3.529-1.195-5.03,0.332c0.048,1.109,0.79,1.495,1.38,1.981c0.883,0.727,1.852,1.345,2.65,2.18
		c1.943,2.033,1.505,4.674-1.009,5.974c-1.685,0.87-3.5,0.827-5.309,0.69c-0.95-0.072-1.887-0.286-2.917-0.45
		c-0.112-1.123-0.217-2.178-0.339-3.407c2.035,0.403,3.981,1.407,5.829,0.212c0.322-1.08-0.403-1.48-0.914-1.942
		c-0.982-0.888-2.081-1.655-3.015-2.588c-2.061-2.058-1.522-4.822,1.148-6.023C110.594,6.512,113.031,6.948,115.625,7.385z"/>
	<path fill-rule="evenodd" clip-rule="evenodd" fill="#0E5E9E" d="M239.365,7.562c0.072,0.942,0.146,1.934,0.231,3.046
		c-1.847-0.05-3.732-1.231-5.246,0.45c0.237,1.083,1.017,1.497,1.65,2.027c0.785,0.655,1.646,1.231,2.367,1.948
		c2.169,2.157,1.564,5.058-1.263,6.237c-1.668,0.697-3.42,0.642-5.167,0.502c-0.833-0.066-1.657-0.253-2.565-0.397
		c-0.331-1.099-0.37-2.207-0.403-3.413c2.057,0.336,4.064,1.525,5.946-0.092c-0.266-1.224-1.171-1.684-1.886-2.307
		c-0.771-0.673-1.599-1.288-2.312-2.018c-1.892-1.939-1.424-4.602,0.982-5.846C233.552,6.745,236.613,6.672,239.365,7.562z"/>
	<path fill-rule="evenodd" clip-rule="evenodd" fill="#0D5E9E" d="M306.261,7.312c0.617-0.034,0.912-0.062,1.21-0.063
		c1.262-0.005,2.522-0.002,3.889-0.002c0.823,1.596,1.637,3.171,2.564,4.971c1.099-1.751,2.08-3.313,3.07-4.891
		c1.661-0.124,3.265-0.125,5.162,0.022c-2.158,3.048-4.197,5.926-6.385,9.015c0,1.549,0,3.278,0,5.082
		c-1.725,0.162-3.252,0.181-4.804,0.007c1.138-4.703-1.03-8.336-3.439-11.907C307.099,8.908,306.764,8.207,306.261,7.312z"/>
	<path fill-rule="evenodd" clip-rule="evenodd" fill="#0E5F9F" d="M37.487,7.305c4.845,0,9.404,0,14.017,0
		c0.349,1.033,0.133,2.01,0.011,3.056c-1.504,0.357-2.947-0.197-4.622,0.112c-0.319,3.581-0.476,7.209-0.549,10.961
		c-1.607,0-3.125,0-4.772,0c0.001-3.648,0.635-7.219,0.427-10.864c-1.47-0.521-2.997,0.271-4.479-0.243
		C37.258,9.347,37.624,8.411,37.487,7.305z"/>
	<path fill-rule="evenodd" clip-rule="evenodd" fill="#0D5E9E" d="M127.355,21.426c0.066-3.677,0.649-7.252,0.421-10.972
		c-1.47-0.245-2.912,0.239-4.405-0.054c-0.395-0.98-0.098-1.965-0.139-3.051c4.773,0,9.388,0,14.093,0
		c0.345,0.991-0.019,1.968-0.064,2.989c-1.48,0.402-2.928-0.199-4.518,0.13c-0.477,3.581-0.489,7.228-0.607,10.984
		C130.503,21.603,128.984,21.639,127.355,21.426z"/>
	<path fill-rule="evenodd" clip-rule="evenodd" fill="#0D5E9E" d="M205.722,21.5c-1.75,0.07-3.289,0.123-4.968-0.035
		c0.147-4.739,0.662-9.386,0.569-14.129c1.721,0,3.256,0,4.898,0C206.076,12.043,205.663,16.647,205.722,21.5z"/>
	<path fill-rule="evenodd" clip-rule="evenodd" fill="#0D5E9E" d="M80.213,7.346c-1.991,0-3.894,0-5.733,0
		c-2.636,4.713-5.213,9.321-7.959,14.231c1.94-0.086,3.551,0.102,5.161-0.12c0.833-1.239,1.2-2.679,2.115-3.87
		c1.797,0,3.589,0,5.345,0c0.836,1.21,0.971,2.648,1.695,3.975c1.556-0.099,3.144,0.177,4.823-0.171
		C83.816,16.635,82.017,11.995,80.213,7.346z M75.083,14.352c0.675-1.349,1.23-2.458,1.862-3.722
		c0.845,1.185,1.131,2.391,1.347,3.704C77.257,14.59,76.332,14.54,75.083,14.352z"/>
	<path fill-rule="evenodd" clip-rule="evenodd" fill="#0D5E9E" d="M165.984,7.297c-1.938,0-3.74,0-5.69,0
		c-2.649,4.743-5.25,9.4-7.924,14.186c1.845,0.109,3.46,0.11,5.135,0.007c0.656-1.309,1.301-2.595,1.951-3.894
		c1.88-0.139,3.679-0.092,5.459-0.031c0.885,1.171,0.905,2.655,1.681,3.928c1.549,0.059,3.124,0.203,4.839-0.12
		C169.581,16.585,167.783,11.942,165.984,7.297z M160.877,14.348c0.677-1.346,1.234-2.455,1.877-3.734
		c0.763,1.229,1.129,2.405,1.331,3.717C163.061,14.59,162.138,14.539,160.877,14.348z"/>
</g>
</svg>
