<?xml version="1.0" encoding="utf-8"?>
<!-- Generator: Adobe Illustrator 16.0.0, SVG Export Plug-In . SVG Version: 6.00 Build 0)  -->
<!DOCTYPE svg PUBLIC "-//W3C//DTD SVG 1.1//EN" "http://www.w3.org/Graphics/SVG/1.1/DTD/svg11.dtd">
<svg version="1.1" id="Layer_1" xmlns="http://www.w3.org/2000/svg" xmlns:xlink="http://www.w3.org/1999/xlink" x="0px" y="0px"
	 width="80px" height="80px" viewBox="0 0 80 80" enable-background="new 0 0 80 80" xml:space="preserve">
<g>
	<path d="M76.683,6.769L66.397,68.479c-0.12,0.764-0.603,1.406-1.285,1.808c-0.361,0.201-0.804,0.321-1.246,0.321
		c-0.321,0-0.643-0.08-0.964-0.2l-18.2-7.433l-9.723,11.852c-0.481,0.603-1.205,0.924-1.969,0.924c-0.28,0-0.603-0.04-0.884-0.16
		c-1.004-0.361-1.687-1.326-1.687-2.41V59.159l34.712-42.547L22.204,53.775l-15.87-6.508c-0.924-0.362-1.526-1.206-1.607-2.21
		c-0.04-0.964,0.442-1.888,1.286-2.37L72.866,4.117c0.401-0.241,0.844-0.362,1.285-0.362c0.522,0,1.045,0.161,1.447,0.442
		C76.442,4.8,76.844,5.764,76.683,6.769z"/>
</g>
</svg>
