<?xml version="1.0" encoding="utf-8"?>
<!-- Generator: Adobe Illustrator 16.0.0, SVG Export Plug-In . SVG Version: 6.00 Build 0)  -->
<!DOCTYPE svg PUBLIC "-//W3C//DTD SVG 1.1//EN" "http://www.w3.org/Graphics/SVG/1.1/DTD/svg11.dtd">
<svg version="1.1" id="Capa_1" xmlns="http://www.w3.org/2000/svg" xmlns:xlink="http://www.w3.org/1999/xlink" x="0px" y="0px"
	 width="430px" height="430px" viewBox="0 0 430 430" enable-background="new 0 0 430 430" xml:space="preserve">
<g>
	<path fill="#414A52" d="M183.512,102.42c-11.485-10.4-26.4-16.229-42.102-16.229c-34.634,0-62.811,28.176-62.811,62.805
		c0,15.658,5.798,30.542,16.15,42.012H40v7.135h73.494l-7.604-6.313c-12.81-10.633-20.156-26.245-20.156-42.833
		c0-30.695,24.974-55.669,55.675-55.669c16.219,0,31.484,7.031,42.102,19.308v10.949c-8.626-14.237-24.271-23.772-42.101-23.772
		c-27.125,0-49.19,22.064-49.19,49.186c0,26.49,20.722,48.076,47.176,49.143l44.118,0.004v13.851h-7.928v7.136h7.928v12.729H40
		v7.133h54.815c-10.395,11.479-16.216,26.384-16.216,42.077c0,34.635,28.176,62.811,62.811,62.811
		c15.702,0,30.62-5.824,42.102-16.229v58.271h7.135v-77.067l-6.316,7.639c-10.641,12.87-26.284,20.252-42.92,20.252
		c-30.702,0-55.675-24.975-55.675-55.675c0-16.209,7.026-31.462,19.298-42.075h10.928c-14.22,8.629-23.741,24.262-23.741,42.075
		c0,27.125,22.068,49.191,49.191,49.191c27.125,0,49.192-22.068,49.192-49.191h0.045V44.079h-7.135v58.341H183.512z
		 M139.636,191.006c-22.591-0.937-40.284-19.38-40.284-42.011c0-23.186,18.867-42.051,42.058-42.051
		c23.19,0,42.057,18.863,42.057,42.051l0.045,3.567v38.444H139.636z M183.467,281.064c0,23.191-18.866,42.058-42.057,42.058
		c-23.192,0-42.058-18.866-42.058-42.058c0-23.185,18.867-42.05,42.058-42.05l42.102-0.027L183.467,281.064z"/>
	<path fill="#414A52" d="M390,191.006h-54.866c10.355-11.469,16.158-26.353,16.158-42.011c0-34.629-28.177-62.806-62.812-62.806
		c-15.644,0-30.521,5.791-41.994,16.13v-58.24h-7.134v76.955l6.31-7.583c10.64-12.789,26.247-20.125,42.818-20.125
		c30.7,0,55.677,24.974,55.677,55.67c0,16.173-7,31.403-19.221,42.012h-10.794c14.164-8.635,23.529-24.208,23.529-42.012
		c0-27.122-22.067-49.186-49.191-49.186c-26.225,0-47.803,20.498-49.123,46.661l-0.007,239.449h7.135v-58.18
		c11.472,10.346,26.347,16.14,41.995,16.14c34.637,0,62.812-28.177,62.812-62.811c0-15.691-5.819-30.598-16.214-42.076h54.919
		v-7.134h-73.713l7.637,6.316c12.857,10.638,20.233,26.27,20.233,42.894c0,30.7-24.976,55.676-55.677,55.676
		c-16.158,0-31.381-6.989-41.993-19.197v-10.842c8.659,14.167,24.258,23.551,41.993,23.551c27.126,0,49.193-22.066,49.193-49.189
		c0-27.122-22.067-49.186-49.193-49.186v-0.025h-41.993v-12.728h7.928v-7.135h-7.928V198.14H390V191.006z M288.481,239.016
		c23.191,0,42.058,18.863,42.058,42.051c0,23.19-18.866,42.057-42.058,42.057c-22.399,0-40.832-17.491-41.994-39.834v-44.3
		L288.481,239.016z M246.487,146.77c1.162-22.336,19.595-39.824,41.994-39.824c23.191,0,42.058,18.863,42.058,42.051
		c0,22.629-17.689,41.074-40.273,42.011h-43.778V146.77L246.487,146.77z"/>
	<rect x="211.433" y="45.469" fill="#414A52" width="7.135" height="11.495"/>
	<rect x="211.433" y="276.558" fill="#414A52" width="7.135" height="24.4"/>
	<rect x="211.433" y="325.359" fill="#414A52" width="7.135" height="24.399"/>
	<rect x="211.433" y="227.758" fill="#414A52" width="7.135" height="24.399"/>
	<rect x="211.433" y="81.363" fill="#414A52" width="7.135" height="24.399"/>
	<rect x="211.433" y="178.96" fill="#414A52" width="7.135" height="24.398"/>
	<rect x="211.433" y="130.162" fill="#414A52" width="7.135" height="24.398"/>
	<rect x="211.433" y="374.155" fill="#414A52" width="7.135" height="11.495"/>
	<rect x="80.24" y="211.991" fill="#414A52" width="23.836" height="7.135"/>
	<rect x="127.913" y="211.991" fill="#414A52" width="23.834" height="7.135"/>
	<rect x="44.909" y="211.991" fill="#414A52" width="11.496" height="7.135"/>
	<rect x="373.595" y="211.991" fill="#414A52" width="11.494" height="7.135"/>
	<rect x="278.251" y="211.991" fill="#414A52" width="23.836" height="7.135"/>
	<rect x="325.924" y="211.991" fill="#414A52" width="23.836" height="7.135"/>
</g>
</svg>
