<?xml version="1.0" encoding="utf-8"?>
<!-- Generator: Adobe Illustrator 16.0.0, SVG Export Plug-In . SVG Version: 6.00 Build 0)  -->
<!DOCTYPE svg PUBLIC "-//W3C//DTD SVG 1.1//EN" "http://www.w3.org/Graphics/SVG/1.1/DTD/svg11.dtd">
<svg version="1.1" id="Capa_1" xmlns="http://www.w3.org/2000/svg" xmlns:xlink="http://www.w3.org/1999/xlink" x="0px" y="0px"
	 width="400px" height="400.001px" viewBox="56 55.999 400 400.001" enable-background="new 56 55.999 400 400.001"
	 xml:space="preserve">
<g>
	<g>
		<circle fill="#414A52" cx="255.997" cy="256.002" r="13.75"/>
		<path fill="#414A52" d="M285.8,145.184l-8.285,25.947c-0.819,2.554,0.593,5.287,3.146,6.102c0.491,0.156,0.984,0.233,1.476,0.233
			c2.058,0,3.965-1.316,4.621-3.378l8.284-25.947c0.818-2.553-0.592-5.286-3.146-6.1C289.354,141.229,286.61,142.635,285.8,145.184z
			"/>
		<path fill="#414A52" d="M214.732,183.819c0.78,0,1.571-0.189,2.31-0.588c2.358-1.281,3.232-4.228,1.952-6.581l-12.993-23.938
			c-1.281-2.354-4.228-3.228-6.577-1.952c-2.359,1.281-3.232,4.228-1.952,6.581l12.994,23.938
			C211.345,182.901,213.014,183.819,214.732,183.819z"/>
		<path fill="#414A52" d="M333.039,219.586c0.782,0,1.573-0.189,2.312-0.587l23.937-12.993c2.36-1.281,3.233-4.228,1.953-6.581
			c-1.281-2.354-4.224-3.233-6.577-1.952l-23.938,12.994c-2.359,1.28-3.233,4.227-1.953,6.581
			C329.65,218.669,331.316,219.586,333.039,219.586z"/>
		<path fill="#414A52" d="M366.812,285.804l-25.947-8.286c-2.545-0.843-5.286,0.593-6.097,3.146
			c-0.82,2.548,0.592,5.281,3.146,6.096l25.948,8.285c0.489,0.16,0.984,0.232,1.475,0.232c2.059,0,3.966-1.315,4.622-3.377
			C370.776,289.348,369.364,286.62,366.812,285.804z"/>
		<path fill="#414A52" d="M220.1,369.962c0.49,0.16,0.984,0.233,1.476,0.233c2.058,0,3.967-1.315,4.621-3.379l8.284-25.947
			c0.819-2.549-0.592-5.281-3.146-6.096c-2.549-0.846-5.286,0.591-6.097,3.145l-8.284,25.947
			C216.135,366.419,217.548,369.152,220.1,369.962z"/>
		<path fill="#414A52" d="M294.953,328.773c-2.359,1.281-3.232,4.223-1.952,6.578l12.994,23.938c0.882,1.621,2.547,2.54,4.271,2.54
			c0.782,0,1.572-0.19,2.312-0.589c2.357-1.279,3.231-4.222,1.95-6.576l-12.994-23.938
			C300.249,328.37,297.306,327.503,294.953,328.773z"/>
		<path fill="#414A52" d="M176.65,293.009l-23.939,12.992c-2.358,1.281-3.232,4.224-1.951,6.577
			c0.883,1.621,2.548,2.539,4.271,2.539c0.781,0,1.573-0.19,2.311-0.588l23.938-12.992c2.359-1.281,3.233-4.222,1.952-6.576
			C181.95,292.604,179.009,291.726,176.65,293.009z"/>
		<path fill="#414A52" d="M174.083,225.244l-25.943-8.283c-2.572-0.816-5.285,0.597-6.101,3.145
			c-0.819,2.553,0.592,5.286,3.141,6.102l25.943,8.284c0.496,0.156,0.99,0.232,1.48,0.232c2.058,0,3.961-1.315,4.621-3.377
			C178.043,228.793,176.631,226.061,174.083,225.244z"/>
		<path fill="#414A52" d="M256.503,222.425c4.009,0,7.266-3.242,7.279-7.255l0.34-101.866c0.015-4.019-3.235-7.29-7.256-7.305
			c-0.009,0-0.014,0-0.023,0c-4.01,0-7.267,3.243-7.281,7.256l-0.339,101.86c-0.015,4.02,3.236,7.289,7.256,7.305
			C256.487,222.425,256.493,222.425,256.503,222.425z"/>
		<path fill="#414A52" d="M188.357,205.51c1.417,0,2.82-0.617,3.776-1.802c1.688-2.087,1.364-5.142-0.719-6.828l-21.167-17.134
			c-2.082-1.693-5.149-1.359-6.824,0.718c-1.689,2.086-1.364,5.141,0.718,6.83l21.167,17.133
			C186.208,205.155,187.29,205.51,188.357,205.51z"/>
		<path fill="#414A52" d="M311.338,193.22c1.417,0,2.821-0.615,3.775-1.801l17.135-21.171c1.688-2.083,1.363-5.141-0.718-6.824
			c-2.083-1.689-5.145-1.36-6.824,0.719l-17.135,21.171c-1.688,2.083-1.364,5.141,0.719,6.824
			C309.188,192.871,310.272,193.22,311.338,193.22z"/>
		<path fill="#414A52" d="M398.742,249.567l-97.004-0.34c-0.006,0-0.016,0-0.023,0c-4.011,0-7.268,3.241-7.281,7.256
			c-0.016,4.025,3.232,7.289,7.257,7.305l97.005,0.339c0.004,0,0.015,0,0.024,0c4.009,0,7.266-3.241,7.28-7.256
			C406.015,252.853,402.767,249.582,398.742,249.567z"/>
		<path fill="#414A52" d="M255.128,406c0.011,0,0.015,0,0.025,0c4.01,0,7.266-3.242,7.28-7.256l0.34-101.854
			c0.017-4.02-3.237-7.29-7.255-7.305c-0.009,0-0.015,0-0.024,0c-4.011,0-7.266,3.242-7.281,7.255l-0.34,101.855
			C247.858,402.719,251.11,405.985,255.128,406z"/>
		<path fill="#414A52" d="M319.863,308.296c-1.689,2.082-1.365,5.141,0.718,6.825l21.167,17.133
			c0.897,0.724,1.976,1.083,3.048,1.083c1.417,0,2.819-0.616,3.776-1.802c1.688-2.082,1.363-5.14-0.719-6.824l-21.167-17.133
			C324.608,305.888,321.541,306.214,319.863,308.296z"/>
		<path fill="#414A52" d="M196.875,320.585l-17.127,21.172c-1.688,2.087-1.364,5.14,0.719,6.823
			c0.897,0.724,1.975,1.084,3.047,1.084c1.417,0,2.82-0.617,3.776-1.803l17.128-21.17c1.688-2.088,1.363-5.141-0.719-6.825
			C201.622,318.182,198.56,318.505,196.875,320.585z"/>
		<path fill="#414A52" d="M297.598,184.004c1.718,0,3.378-0.913,4.262-2.518l13.096-23.88c1.292-2.349,0.426-5.3-1.921-6.591
			c-2.35-1.292-5.305-0.422-6.586,1.922l-13.096,23.88c-1.292,2.35-0.427,5.301,1.921,6.591
			C296.013,183.809,296.813,184.004,297.598,184.004z"/>
		<path fill="#414A52" d="M234.861,171.04l-8.175-25.982c-0.805-2.548-3.524-3.985-6.086-3.174
			c-2.558,0.805-3.979,3.533-3.174,6.085l8.173,25.983c0.656,2.072,2.562,3.396,4.631,3.396c0.481,0,0.97-0.072,1.456-0.222
			C234.244,176.32,235.666,173.593,234.861,171.04z"/>
		<path fill="#414A52" d="M339.505,235.084c0.48,0,0.97-0.073,1.456-0.223l25.986-8.175c2.558-0.806,3.976-3.527,3.173-6.084
			c-0.805-2.554-3.528-3.99-6.086-3.175l-25.987,8.172c-2.558,0.807-3.974,3.528-3.172,6.086
			C335.529,233.759,337.437,235.084,339.505,235.084z"/>
		<path fill="#414A52" d="M328.599,295.278c-1.291,2.344-0.426,5.301,1.922,6.587l23.881,13.095
			c0.737,0.407,1.538,0.597,2.324,0.597c1.72,0,3.379-0.911,4.263-2.522c1.291-2.345,0.427-5.301-1.922-6.586l-23.881-13.095
			C332.835,292.06,329.891,292.925,328.599,295.278z"/>
		<path fill="#414A52" d="M210.135,330.526l-13.09,23.885c-1.291,2.35-0.426,5.3,1.923,6.586c0.737,0.408,1.538,0.598,2.325,0.598
			c1.719,0,3.378-0.913,4.262-2.523l13.092-23.886c1.29-2.351,0.426-5.3-1.923-6.587
			C214.368,327.303,211.417,328.173,210.135,330.526z"/>
		<path fill="#414A52" d="M285.313,366.944c0.655,2.077,2.563,3.396,4.63,3.396c0.481,0,0.971-0.073,1.457-0.223
			c2.557-0.806,3.979-3.534,3.173-6.085l-8.173-25.982c-0.807-2.559-3.52-3.98-6.087-3.175c-2.558,0.807-3.979,3.534-3.173,6.087
			L285.313,366.944z"/>
		<path fill="#414A52" d="M171.034,277.14l-25.98,8.172c-2.558,0.806-3.98,3.535-3.174,6.087c0.656,2.078,2.563,3.397,4.631,3.397
			c0.48,0,0.97-0.072,1.456-0.223l25.982-8.173c2.558-0.807,3.98-3.534,3.174-6.088C176.315,277.756,173.603,276.329,171.034,277.14
			z"/>
		<path fill="#414A52" d="M183.401,216.73c1.291-2.349,0.427-5.3-1.921-6.59l-23.88-13.096c-2.349-1.291-5.305-0.422-6.586,1.922
			c-1.291,2.349-0.427,5.301,1.922,6.592l23.88,13.096c0.738,0.402,1.539,0.597,2.325,0.597
			C180.858,219.251,182.518,218.338,183.401,216.73z"/>
		<path fill="#414A52" d="M200.205,193.594c1.102,0,2.204-0.374,3.116-1.135c2.053-1.724,2.325-4.78,0.602-6.839l-17.502-20.866
			c-1.722-2.048-4.776-2.32-6.839-0.601c-2.053,1.722-2.325,4.78-0.602,6.838l17.499,20.866
			C197.444,193.002,198.817,193.594,200.205,193.594z"/>
		<path fill="#414A52" d="M323.265,205.058c1.102,0,2.204-0.374,3.115-1.135l20.872-17.503c2.053-1.723,2.325-4.781,0.603-6.839
			c-1.719-2.054-4.776-2.325-6.84-0.602l-20.871,17.501c-2.052,1.723-2.324,4.781-0.602,6.839
			C320.503,204.467,321.877,205.058,323.265,205.058z"/>
		<path fill="#414A52" d="M308.681,319.551c-2.054,1.718-2.325,4.781-0.599,6.835l17.504,20.866
			c0.955,1.145,2.329,1.732,3.723,1.732c1.102,0,2.204-0.373,3.117-1.136c2.054-1.718,2.324-4.781,0.596-6.834l-17.502-20.866
			C313.8,318.096,310.738,317.823,308.681,319.551z"/>
		<path fill="#414A52" d="M185.615,308.078l-20.866,17.497c-2.053,1.724-2.325,4.786-0.602,6.839
			c0.961,1.146,2.335,1.733,3.728,1.733c1.102,0,2.204-0.374,3.116-1.131l20.866-17.499c2.052-1.722,2.325-4.784,0.601-6.837
			C190.73,306.633,187.678,306.364,185.615,308.078z"/>
		<path fill="#414A52" d="M210.262,262.778c0.004,0,0.015,0,0.023,0c4.01,0,7.266-3.242,7.28-7.256
			c0.015-4.023-3.232-7.29-7.256-7.305l-97.004-0.34c-0.005,0-0.015,0-0.025,0c-4.01,0-7.266,3.242-7.28,7.257
			c-0.015,4.023,3.233,7.29,7.255,7.304L210.262,262.778z"/>
	</g>
</g>
</svg>
