<?xml version="1.0" encoding="utf-8"?>
<!-- Generator: Adobe Illustrator 16.0.0, SVG Export Plug-In . SVG Version: 6.00 Build 0)  -->
<!DOCTYPE svg PUBLIC "-//W3C//DTD SVG 1.1//EN" "http://www.w3.org/Graphics/SVG/1.1/DTD/svg11.dtd">
<svg version="1.1" id="Capa_1" xmlns="http://www.w3.org/2000/svg" xmlns:xlink="http://www.w3.org/1999/xlink" x="0px" y="0px"
	 width="400px" height="400px" viewBox="56 56 400 400" enable-background="new 56 56 400 400" xml:space="preserve">
<g>
	<g>
		<circle fill="#FFFFFF" cx="255.997" cy="256.004" r="18.334"/>
		<path fill="#FFFFFF" d="M295.733,108.245l-11.047,34.597c-1.093,3.405,0.79,7.048,4.194,8.135
			c0.654,0.208,1.313,0.311,1.968,0.311c2.744,0,5.287-1.754,6.161-4.504l11.046-34.597c1.092-3.404-0.79-7.048-4.195-8.134
			C300.47,102.971,296.814,104.847,295.733,108.245z"/>
		<path fill="#FFFFFF" d="M200.976,159.759c1.042,0,2.097-0.252,3.08-0.784c3.145-1.708,4.31-5.636,2.602-8.775l-17.324-31.917
			c-1.708-3.139-5.636-4.304-8.768-2.603c-3.146,1.708-4.31,5.637-2.603,8.775l17.324,31.918
			C196.459,158.535,198.685,159.759,200.976,159.759z"/>
		<path fill="#FFFFFF" d="M358.719,207.448c1.042,0,2.097-0.253,3.081-0.783l31.917-17.324c3.146-1.708,4.311-5.637,2.603-8.775
			s-5.63-4.31-8.769-2.602l-31.918,17.324c-3.146,1.708-4.311,5.636-2.603,8.775C354.201,206.224,356.422,207.448,358.719,207.448z"
			/>
		<path fill="#FFFFFF" d="M403.749,295.739l-34.597-11.047c-3.393-1.125-7.048,0.79-8.129,4.194
			c-1.093,3.398,0.79,7.042,4.195,8.128l34.596,11.047c0.654,0.213,1.314,0.31,1.968,0.31c2.744,0,5.287-1.753,6.161-4.503
			C409.036,300.464,407.153,296.827,403.749,295.739z"/>
		<path fill="#FFFFFF" d="M208.133,407.949c0.654,0.214,1.313,0.311,1.967,0.311c2.744,0,5.288-1.754,6.161-4.506l11.046-34.596
			c1.093-3.398-0.79-7.041-4.194-8.128c-3.398-1.126-7.048,0.789-8.128,4.194l-11.046,34.597
			C202.846,403.224,204.73,406.869,208.133,407.949z"/>
		<path fill="#FFFFFF" d="M307.937,353.031c-3.145,1.709-4.31,5.63-2.602,8.77l17.325,31.917c1.177,2.162,3.397,3.386,5.693,3.386
			c1.043,0,2.097-0.252,3.082-0.784c3.144-1.706,4.31-5.629,2.602-8.768l-17.325-31.919
			C314.998,352.494,311.075,351.336,307.937,353.031z"/>
		<path fill="#FFFFFF" d="M150.2,305.344l-31.918,17.323c-3.145,1.709-4.31,5.631-2.602,8.77c1.178,2.161,3.398,3.386,5.695,3.386
			c1.042,0,2.097-0.254,3.081-0.784l31.917-17.324c3.146-1.708,4.311-5.629,2.603-8.768
			C157.267,304.805,153.345,303.635,150.2,305.344z"/>
		<path fill="#FFFFFF" d="M146.777,214.993l-34.591-11.046c-3.429-1.087-7.047,0.796-8.134,4.193
			c-1.093,3.404,0.789,7.048,4.187,8.135l34.591,11.047c0.661,0.207,1.32,0.31,1.974,0.31c2.744,0,5.281-1.754,6.161-4.503
			C152.057,219.724,150.175,216.082,146.777,214.993z"/>
		<path fill="#FFFFFF" d="M256.67,211.233c5.346,0,9.688-4.323,9.707-9.674l0.453-135.82c0.02-5.359-4.315-9.72-9.675-9.74
			c-0.013,0-0.019,0-0.032,0c-5.345,0-9.687,4.324-9.707,9.675l-0.453,135.812c-0.019,5.359,4.317,9.72,9.675,9.74
			C256.651,211.233,256.657,211.233,256.67,211.233z"/>
		<path fill="#FFFFFF" d="M165.809,188.68c1.89,0,3.761-0.822,5.035-2.402c2.251-2.782,1.819-6.854-0.958-9.104l-28.222-22.845
			c-2.776-2.257-6.866-1.812-9.099,0.958c-2.252,2.782-1.819,6.854,0.958,9.105l28.223,22.845
			C162.943,188.207,164.386,188.68,165.809,188.68z"/>
		<path fill="#FFFFFF" d="M329.784,172.294c1.89,0,3.761-0.821,5.035-2.401l22.845-28.228c2.251-2.777,1.818-6.854-0.957-9.099
			c-2.777-2.252-6.86-1.813-9.1,0.958l-22.845,28.229c-2.251,2.776-1.818,6.854,0.958,9.098
			C326.918,171.828,328.363,172.294,329.784,172.294z"/>
		<path fill="#FFFFFF" d="M446.325,247.423l-129.341-0.453c-0.007,0-0.02,0-0.032,0c-5.347,0-9.688,4.322-9.707,9.674
			c-0.02,5.366,4.31,9.72,9.675,9.74l129.34,0.452c0.006,0,0.02,0,0.033,0c5.346,0,9.687-4.322,9.707-9.674
			C456.019,251.803,451.69,247.442,446.325,247.423z"/>
		<path fill="#FFFFFF" d="M254.838,456c0.013,0,0.02,0,0.033,0c5.346,0,9.688-4.323,9.707-9.674l0.453-135.806
			c0.021-5.359-4.316-9.721-9.673-9.739c-0.013,0-0.02,0-0.033,0c-5.346,0-9.687,4.322-9.707,9.674l-0.454,135.806
			C245.144,451.626,249.481,455.98,254.838,456z"/>
		<path fill="#FFFFFF" d="M341.15,325.728c-2.252,2.776-1.819,6.854,0.957,9.099l28.223,22.844c1.198,0.965,2.635,1.444,4.064,1.444
			c1.889,0,3.761-0.822,5.035-2.402c2.251-2.776,1.818-6.853-0.958-9.098l-28.223-22.845
			C347.479,322.518,343.389,322.952,341.15,325.728z"/>
		<path fill="#FFFFFF" d="M177.167,342.113l-22.837,28.229c-2.251,2.783-1.819,6.854,0.958,9.098
			c1.197,0.965,2.634,1.444,4.063,1.444c1.889,0,3.76-0.822,5.035-2.402l22.837-28.228c2.251-2.783,1.819-6.853-0.958-9.099
			C183.496,338.91,179.413,339.339,177.167,342.113z"/>
		<path fill="#FFFFFF" d="M311.464,160.005c2.29,0,4.504-1.217,5.683-3.358l17.461-31.84c1.721-3.132,0.568-7.067-2.562-8.788
			c-3.134-1.722-7.074-0.562-8.783,2.563l-17.46,31.84c-1.722,3.132-0.569,7.067,2.562,8.788
			C309.349,159.746,310.417,160.005,311.464,160.005z"/>
		<path fill="#FFFFFF" d="M227.814,142.719l-10.898-34.642c-1.074-3.398-4.699-5.314-8.115-4.232
			c-3.411,1.074-5.306,4.711-4.232,8.115l10.898,34.643c0.874,2.763,3.416,4.529,6.174,4.529c0.641,0,1.293-0.097,1.941-0.296
			C226.992,149.76,228.888,146.124,227.814,142.719z"/>
		<path fill="#FFFFFF" d="M367.34,228.111c0.641,0,1.294-0.097,1.941-0.297l34.648-10.898c3.411-1.075,5.301-4.704,4.232-8.114
			c-1.074-3.404-4.705-5.319-8.115-4.232l-34.649,10.896c-3.41,1.075-5.3,4.705-4.231,8.115
			C362.039,226.344,364.582,228.111,367.34,228.111z"/>
		<path fill="#FFFFFF" d="M352.799,308.371c-1.722,3.126-0.569,7.067,2.562,8.782l31.84,17.46c0.984,0.544,2.052,0.796,3.1,0.796
			c2.292,0,4.505-1.216,5.683-3.364c1.721-3.126,0.569-7.067-2.562-8.782l-31.841-17.46
			C358.448,304.081,354.521,305.232,352.799,308.371z"/>
		<path fill="#FFFFFF" d="M194.847,355.368l-17.454,31.847c-1.721,3.131-0.569,7.066,2.563,8.78c0.983,0.545,2.051,0.797,3.1,0.797
			c2.291,0,4.504-1.217,5.682-3.365l17.455-31.847c1.721-3.133,0.569-7.067-2.563-8.782
			C200.49,351.071,196.557,352.23,194.847,355.368z"/>
		<path fill="#FFFFFF" d="M295.084,403.924c0.875,2.771,3.419,4.531,6.174,4.531c0.642,0,1.295-0.099,1.942-0.298
			c3.41-1.074,5.306-4.712,4.231-8.114L296.533,365.4c-1.074-3.411-4.691-5.307-8.114-4.232c-3.411,1.075-5.307,4.711-4.232,8.115
			L295.084,403.924z"/>
		<path fill="#FFFFFF" d="M142.712,284.187l-34.641,10.897c-3.411,1.074-5.307,4.712-4.232,8.115c0.874,2.77,3.417,4.53,6.174,4.53
			c0.641,0,1.293-0.096,1.941-0.297l34.643-10.897c3.411-1.075,5.307-4.712,4.232-8.116
			C149.754,285.009,146.136,283.105,142.712,284.187z"/>
		<path fill="#FFFFFF" d="M159.202,203.641c1.721-3.132,0.569-7.067-2.562-8.788l-31.84-17.46c-3.132-1.721-7.074-0.563-8.782,2.563
			c-1.721,3.132-0.569,7.067,2.563,8.789l31.84,17.46c0.984,0.537,2.052,0.796,3.1,0.796
			C155.811,207.001,158.024,205.784,159.202,203.641z"/>
		<path fill="#FFFFFF" d="M181.607,172.792c1.468,0,2.938-0.499,4.155-1.514c2.737-2.298,3.1-6.374,0.802-9.118l-23.337-27.821
			c-2.296-2.731-6.368-3.094-9.118-0.802c-2.738,2.297-3.1,6.374-0.803,9.118l23.331,27.821
			C177.925,172.003,179.756,172.792,181.607,172.792z"/>
		<path fill="#FFFFFF" d="M345.686,188.078c1.469,0,2.938-0.498,4.155-1.514l27.828-23.337c2.737-2.297,3.1-6.375,0.803-9.118
			c-2.29-2.738-6.368-3.1-9.118-0.803l-27.828,23.336c-2.737,2.297-3.1,6.375-0.803,9.118
			C342.004,187.289,343.836,188.078,345.686,188.078z"/>
		<path fill="#FFFFFF" d="M326.24,340.734c-2.737,2.291-3.1,6.375-0.796,9.113l23.337,27.821c1.274,1.527,3.106,2.31,4.964,2.31
			c1.468,0,2.939-0.497,4.155-1.514c2.738-2.29,3.1-6.375,0.796-9.111l-23.337-27.822
			C333.067,338.794,328.984,338.431,326.24,340.734z"/>
		<path fill="#FFFFFF" d="M162.154,325.437l-27.822,23.33c-2.737,2.298-3.1,6.381-0.802,9.118c1.281,1.528,3.113,2.311,4.97,2.311
			c1.469,0,2.938-0.498,4.155-1.507l27.821-23.332c2.737-2.297,3.1-6.38,0.802-9.117
			C168.974,323.509,164.904,323.152,162.154,325.437z"/>
		<path fill="#FFFFFF" d="M195.015,265.038c0.006,0,0.019,0,0.032,0c5.346,0,9.688-4.323,9.707-9.674
			c0.02-5.366-4.31-9.721-9.674-9.74l-129.34-0.453c-0.007,0-0.02,0-0.033,0c-5.346,0-9.688,4.323-9.707,9.675
			c-0.02,5.365,4.31,9.719,9.674,9.739L195.015,265.038z"/>
	</g>
</g>
</svg>
